# xmcd
#
# Track frame offsets:
#	150
#	15430
#	31452
#	49362
#	64680
#	80347
#	94630
#	109622
#	122905
#	141390
#	161102
#	177610
#	195265
#	208890
#	224752
#	238075
#	257687
#
# Disc length: 3617 seconds
#
# Revision: 2
# Processed by: cddbd v1.5.2PL0 Copyright (c) Steve Scherf et al.
# Submitted via: EasyCDDAExtractor 15.3.0.1
#
DISCID=fc0e1f11
DTITLE=Pandora - Nuestras Mejores Canciones - 17 Super Exitos
DYEAR=1992
DGENRE=Latin
TTITLE0=Como Una Mariposa
TTITLE1=Alguien Llena Mi Lugar
TTITLE2=Tarde O Temprano
TTITLE3=Para Escribir Tu Nombre
TTITLE4=Ni Tu Ni Yo
TTITLE5=De Mil Maneras
TTITLE6=Mi Hombre
TTITLE7=Cuando No Estas Conmigo
TTITLE8=Todavia
TTITLE9=Con Tu Amor
TTITLE10=Como Te Va Mi Amor
TTITLE11=No Puedo Dejar De Pensar En Ti
TTITLE12=Solo Le Pido A Dios
TTITLE13=Solo El Y Yo
TTITLE14=Un Mal Amor
TTITLE15=Amor Eterno
TTITLE16=No Lastimes Mas
EXTD=
EXTT0=
EXTT1=
EXTT2=
EXTT3=
EXTT4=
EXTT5=
EXTT6=
EXTT7=
EXTT8=
EXTT9=
EXTT10=
EXTT11=
EXTT12=
EXTT13=
EXTT14=
EXTT15=
EXTT16=
PLAYORDER=
